<svg xmlns="http://www.w3.org/2000/svg" viewBox="0 0 1000 1000" role="img" aria-label="Mars glyph">
  <path d="M393.84 393.57Q304.33 393.57 241.29 455.79Q178.25 518.01 178.25 607.52Q178.25 697.04 241.29 755.98Q304.33 814.93 393.84 814.93Q481.72 814.93 545.58 755.98Q609.43 697.04 609.43 607.52Q609.43 518.01 545.58 455.79Q481.72 393.57 393.84 393.57ZM618.71 820.94Q527.02 910.45 393.84 910.45Q265.58 910.45 172.79 823.94Q80 737.43 80 607.52Q80 477.62 174.15 384.56Q268.3 291.5 393.84 296.41Q518.28 300.78 579.42 357L776.45 167.06H573.96L650.37 89.55H920V358.09L841.95 436.14V232.55L646.55 422.5Q707.68 502.18 707.68 607.52Q707.68 734.15 618.71 820.94Z" fill="currentColor"/>
</svg>
